<?xml version="1.0" encoding="UTF-8" standalone="no"?>
<!-- Created with Inkscape (http://www.inkscape.org/) -->

<svg
   xmlns:dc="http://purl.org/dc/elements/1.1/"
   xmlns:cc="http://creativecommons.org/ns#"
   xmlns:rdf="http://www.w3.org/1999/02/22-rdf-syntax-ns#"
   xmlns:svg="http://www.w3.org/2000/svg"
   xmlns="http://www.w3.org/2000/svg"
   xmlns:xlink="http://www.w3.org/1999/xlink"
   xmlns:sodipodi="http://sodipodi.sourceforge.net/DTD/sodipodi-0.dtd"
   xmlns:inkscape="http://www.inkscape.org/namespaces/inkscape"
   width="744.09448819"
   height="1052.3622047"
   id="svg2"
   version="1.1"
   inkscape:version="0.48.0 r9654"
   sodipodi:docname="icon.svg"
   inkscape:export-filename="/home/serp/workspace/LiTHeLunch/res/drawable-ldpi/icon.png"
   inkscape:export-xdpi="4.8742747"
   inkscape:export-ydpi="4.8742747">
  <defs
     id="defs4">
    <linearGradient
       id="linearGradient4209">
      <stop
         id="stop4217"
         offset="0"
         style="stop-color:#2a64ff;stop-opacity:1;" />
      <stop
         style="stop-color:#2a2eff;stop-opacity:1;"
         offset="1"
         id="stop4213" />
    </linearGradient>
    <radialGradient
       inkscape:collect="always"
       xlink:href="#linearGradient4209"
       id="radialGradient3840"
       gradientUnits="userSpaceOnUse"
       gradientTransform="matrix(1.09375,1.2812499,-0.76054892,0.64928061,-105.63882,-433.5406)"
       cx="428.34308"
       cy="112.47653"
       fx="428.34308"
       fy="112.47653"
       r="256" />
  </defs>
  <sodipodi:namedview
     id="base"
     pagecolor="#ffffff"
     bordercolor="#666666"
     borderopacity="1.0"
     inkscape:pageopacity="0.0"
     inkscape:pageshadow="2"
     inkscape:zoom="1.2760896"
     inkscape:cx="266.10743"
     inkscape:cy="665.67547"
     inkscape:document-units="px"
     inkscape:current-layer="layer1"
     showgrid="true"
     inkscape:window-width="1680"
     inkscape:window-height="979"
     inkscape:window-x="0"
     inkscape:window-y="24"
     inkscape:window-maximized="1">
    <inkscape:grid
       type="xygrid"
       id="grid2998"
       empspacing="4"
       visible="true"
       enabled="true"
       snapvisiblegridlinesonly="true" />
  </sodipodi:namedview>
  <metadata
     id="metadata7">
    <rdf:RDF>
      <cc:Work
         rdf:about="">
        <dc:format>image/svg+xml</dc:format>
        <dc:type
           rdf:resource="http://purl.org/dc/dcmitype/StillImage" />
        <dc:title></dc:title>
      </cc:Work>
    </rdf:RDF>
  </metadata>
  <g
     inkscape:label="Layer 1"
     inkscape:groupmode="layer"
     id="layer1">
    <rect
       style="fill:url(#radialGradient3840);fill-opacity:1;stroke:#000000;stroke-opacity:1;stroke-width:5;stroke-miterlimit:4;stroke-dasharray:none"
       id="rect2990"
       width="512"
       height="512"
       x="109.31749"
       y="52.302765"
       ry="64"
       inkscape:export-xdpi="9.7485495"
       inkscape:export-ydpi="9.7485495"
       inkscape:export-filename="/home/serp/workspace/LiTHeLunch/res/drawable-hdpi/icon.png" />
    <path
       id="path2987-5"
       style="fill:#ffffff;stroke:#000000;stroke-width:3;stroke-linecap:butt;stroke-linejoin:miter;stroke-miterlimit:4;stroke-opacity:1;stroke-dasharray:none"
       d="m 249.00003,448.30276 c 0,0 -55.92871,-25.75593 -58.50785,-90.25462 -1.44854,-36.22508 7.82237,-187.1817 7.82237,-187.1817 0,0 0,-21.34125 8.00297,-21.34125 8.00297,0 8.00297,21.34125 8.00297,21.34125 l 10.67063,149.38878 c 0,0 0,26.67657 18.6736,26.67657 18.6736,0 18.6736,-26.67657 18.6736,-26.67657 l 10.67063,-149.38878 c 0,0 0,-21.34125 8.00297,-21.34125 8.00297,0 8.00297,21.34125 8.00297,21.34125 l 10.67063,149.38878 c 0,0 0,26.67657 18.6736,26.67657 18.6736,0 18.6736,-26.67657 18.6736,-26.67657 l 10.67062,-149.38878 c 0,0 0,-21.34125 8.00297,-21.34125 8.00298,0 8.00298,21.34125 8.00298,21.34125 0,0 9.27088,150.6866 7.82234,186.91167 -2.57914,64.49867 -58.50783,90.52465 -58.50783,90.52465 L 313,563.36218 l -64,0 z"
       inkscape:connector-curvature="0"
       sodipodi:nodetypes="csczcczcczcczcczcscccc"
       inkscape:export-filename="/home/serp/workspace/LiTHeLunch/res/drawable-hdpi/icon.png"
       inkscape:export-xdpi="9.7485495"
       inkscape:export-ydpi="9.7485495" />
    <path
       id="path4176"
       style="fill:#ffffff;stroke:#000000;stroke-width:3;stroke-linecap:butt;stroke-linejoin:miter;stroke-miterlimit:4;stroke-opacity:1;stroke-dasharray:none"
       d="m 528,563.36218 0,-466.999982 c 0,0 0,-12 -12,-12 -24,0 -85.36502,160.059382 -85.36502,277.436292 0,114.60766 41.36502,162.56369 41.36502,162.56369 l 0,39 z"
       inkscape:connector-curvature="0"
       sodipodi:nodetypes="ccssccc"
       inkscape:export-filename="/home/serp/workspace/LiTHeLunch/res/drawable-hdpi/icon.png"
       inkscape:export-xdpi="9.7485495"
       inkscape:export-ydpi="9.7485495" />
  </g>
</svg>
